<svg xmlns="http://www.w3.org/2000/svg" width="1440" height="900" viewBox="0 0 1440 900">
  <rect width="1440" height="900" fill="#f6f4ef"/>
  <rect x="0" y="0" width="1440" height="74" fill="#1d2833"/>
  <text x="36" y="47" font-family="Segoe UI, Arial, sans-serif" font-size="27" font-weight="700" fill="#f5f3ee">Exception Review Workspace</text>

  <rect x="26" y="102" width="278" height="770" rx="18" fill="#fbfaf6" stroke="#d7d1c6"/>
  <rect x="326" y="102" width="1088" height="770" rx="18" fill="#fbfaf6" stroke="#d7d1c6"/>

  <text x="50" y="142" font-family="Segoe UI, Arial, sans-serif" font-size="22" font-weight="700" fill="#1d2833">Queues</text>
  <rect x="46" y="172" width="238" height="56" rx="14" fill="#e8efe9"/>
  <rect x="46" y="240" width="238" height="56" rx="14" fill="#f0e7d7"/>
  <rect x="46" y="308" width="238" height="56" rx="14" fill="#eedad6"/>
  <rect x="46" y="376" width="238" height="56" rx="14" fill="#dce7f0"/>
  <text x="64" y="206" font-family="Segoe UI, Arial, sans-serif" font-size="18" fill="#1d2833">Schedules with CHECK</text>
  <text x="235" y="206" font-family="Segoe UI, Arial, sans-serif" font-size="18" font-weight="700" fill="#1d2833">147</text>
  <text x="64" y="274" font-family="Segoe UI, Arial, sans-serif" font-size="18" fill="#1d2833">Date tolerance review</text>
  <text x="240" y="274" font-family="Segoe UI, Arial, sans-serif" font-size="18" font-weight="700" fill="#1d2833">39</text>
  <text x="64" y="342" font-family="Segoe UI, Arial, sans-serif" font-size="18" fill="#1d2833">Cancellation fee candidates</text>
  <text x="240" y="342" font-family="Segoe UI, Arial, sans-serif" font-size="18" font-weight="700" fill="#1d2833">22</text>
  <text x="64" y="410" font-family="Segoe UI, Arial, sans-serif" font-size="18" fill="#1d2833">Mapping gaps</text>
  <text x="240" y="410" font-family="Segoe UI, Arial, sans-serif" font-size="18" font-weight="700" fill="#1d2833">14</text>

  <text x="350" y="142" font-family="Segoe UI, Arial, sans-serif" font-size="22" font-weight="700" fill="#1d2833">Schedule 3004XXXXXXX</text>
  <text x="350" y="176" font-family="Segoe UI, Arial, sans-serif" font-size="16" fill="#6e6a63">Sanitized example of manual review over SQL-generated reconciliation output</text>

  <rect x="350" y="210" width="1040" height="54" rx="12" fill="#f2eee5"/>
  <text x="370" y="243" font-family="Consolas, 'Courier New', monospace" font-size="16" fill="#1d2833">match_status = CHECK   |   source = schedule_reconciliation   |   country = UK</text>

  <rect x="350" y="292" width="1040" height="500" rx="14" fill="#fff" stroke="#d7d1c6"/>
  <rect x="350" y="292" width="1040" height="48" rx="14" fill="#ece7dd"/>
  <text x="366" y="323" font-family="Segoe UI, Arial, sans-serif" font-size="15" font-weight="700" fill="#1d2833">trans_date</text>
  <text x="490" y="323" font-family="Segoe UI, Arial, sans-serif" font-size="15" font-weight="700" fill="#1d2833">receipt_ref</text>
  <text x="672" y="323" font-family="Segoe UI, Arial, sans-serif" font-size="15" font-weight="700" fill="#1d2833">schedule</text>
  <text x="810" y="323" font-family="Segoe UI, Arial, sans-serif" font-size="15" font-weight="700" fill="#1d2833">ref</text>
  <text x="985" y="323" font-family="Segoe UI, Arial, sans-serif" font-size="15" font-weight="700" fill="#1d2833">line_total</text>
  <text x="1132" y="323" font-family="Segoe UI, Arial, sans-serif" font-size="15" font-weight="700" fill="#1d2833">reason</text>

  <g font-family="Consolas, 'Courier New', monospace" font-size="15" fill="#1d2833">
    <rect x="362" y="360" width="1016" height="42" rx="8" fill="#faf8f3"/>
    <text x="372" y="387">2026-04-10</text><text x="492" y="387">UK2604160000727</text><text x="674" y="387">3004XXXXXXX</text><text x="812" y="387">1199785264</text><text x="987" y="387">91.70</text><text x="1132" y="387">date offset</text>
    <rect x="362" y="412" width="1016" height="42" rx="8" fill="#fffdf9"/>
    <text x="372" y="439">2026-04-10</text><text x="492" y="439">CHECK</text><text x="674" y="439">3004XXXXXXX</text><text x="812" y="439">1199456412</text><text x="987" y="439">45.00</text><text x="1132" y="439">needs mapping</text>
    <rect x="362" y="464" width="1016" height="42" rx="8" fill="#faf8f3"/>
    <text x="372" y="491">2026-04-10</text><text x="492" y="491">UK2604090000491</text><text x="674" y="491">3004XXXXXXX</text><text x="812" y="491">1004XXXXXXXX</text><text x="987" y="491">354.37</text><text x="1132" y="491">invoice-only hit</text>
    <rect x="362" y="516" width="1016" height="42" rx="8" fill="#fffdf9"/>
    <text x="372" y="543">2026-04-10</text><text x="492" y="543">UK2604090000490</text><text x="674" y="543">3004XXXXXXX</text><text x="812" y="543">1194417120</text><text x="987" y="543">124.95</text><text x="1132" y="543">candidate match</text>
  </g>

  <rect x="350" y="812" width="1040" height="42" rx="12" fill="#e4efe8"/>
  <text x="370" y="838" font-family="Segoe UI, Arial, sans-serif" font-size="16" fill="#1d2833">Analyst workflow: inspect exception -> validate rule -> apply internal update without vendor dependency</text>
</svg>
